:SAMPLES-PER-SECOND 25
:FULLY-SPECIFIED
:DEGREES
146
root  -0.434811 67.1619 34.0044 -2.39472 -7.8961 -0.675992
RightUpLeg  -2.57399 -0.176578 -1.39688
RightLeg  7.78198 3.35048 -2.01404
RightFoot  -6.38704 -0.180886 3.176
RightToes  2.84633e-005 7.89722e-005 -0.000426369
Spine  1.91111 0.82607 1.36776
Spine1  3.84617 1.5926 3.0083
HEad  24.0886 -3.86547 -6.23492
LeftShoulder1  -3.88251e-019 0 -3.92111e-022
LeftArm  -36.3651 5.93822 -85.21
LeftForeArm  36.4058 1.92005 0.694317
LeftHand  -0.628664 -4.10337 7.95832
RightShoulder  7.45443e-017 -2.42657e-020 1.96277e-018
RightArm  -21.0917 -9.22081 73.9942
RightForeArm  32.3115 7.19024 11.1303
RightHand  -1.25025 10.4604 -9.51812
LeftUpLeg  -2.48835 3.59604 5.0748
LeftLeg  6.23528 -17.2781 -0.180039
LeftFoot  -5.41068 0.272276 -4.6286
LeftToes  3.91355e-005 3.11907e-005 -4.10385e-006
147
root  0.148208 67.1695 34.2462 -2.01341 -9.55832 -0.535748
RightUpLeg  -3.43007 0.0169509 -2.4337
RightLeg  8.51412 5.14625 -1.8502
RightFoot  -6.14254 -0.224884 4.04912
RightToes  2.84633e-005 7.89722e-005 -0.000426369
Spine  1.85934 0.73163 1.27057
Spine1  3.74092 1.40504 2.93329
HEad  22.8543 -4.0855 -5.50276
LeftShoulder1  -3.88251e-019 0 -3.92111e-022
LeftArm  -36.4027 5.85246 -84.8397
LeftForeArm  37.2432 1.86788 1.03727
LeftHand  -0.611405 -4.09539 7.75408
RightShoulder  7.45443e-017 -2.42657e-020 1.96277e-018
RightArm  -19.6563 -9.50671 73.9908
RightForeArm  30.1548 8.04064 11.352
RightHand  -1.38853 10.5661 -10.455
LeftUpLeg  -2.22069 3.27554 4.14937
LeftLeg  5.89113 -14.9756 -0.162203
LeftFoot  -5.10781 0.257462 -4.16471
LeftToes  3.91355e-005 3.11907e-005 -4.10385e-006
148
root  0.757781 67.1471 34.4407 -1.55683 -12.1166 -0.570706
RightUpLeg  -4.83888 0.895204 -3.24995
RightLeg  9.64043 6.79709 -1.49643
RightFoot  -5.79779 -0.256103 4.54009
RightToes  2.84633e-005 7.89722e-005 -0.000426369
Spine  1.85349 0.767976 1.27158
Spine1  3.73447 1.47696 3.08077
HEad  21.5819 -4.24948 -5.08167
LeftShoulder1  -3.88251e-019 0 -3.92111e-022
LeftArm  -36.5232 5.49378 -84.7326
LeftForeArm  37.6896 1.8082 1.65085
LeftHand  -0.64968 -4.00548 8.29402
RightShoulder  7.45443e-017 -2.42657e-020 1.96277e-018
RightArm  -17.4365 -9.57551 73.6247
RightForeArm  28.628 8.83048 11.7067
RightHand  -1.43126 10.6658 -10.699
LeftUpLeg  -2.05327 3.0192 3.38085
LeftLeg  5.58731 -11.8561 -0.0196942
LeftFoot  -4.87725 0.244268 -3.80625
LeftToes  3.91355e-005 3.11907e-005 -4.10385e-006
149
root  1.37027 67.0933 34.5789 -0.690496 -15.5733 -0.684055
RightUpLeg  -7.14627 1.90941 -4.14101
RightLeg  11.021 9.03907 -0.544971
RightFoot  -5.48637 -0.33969 5.90977
RightToes  2.84633e-005 7.89722e-005 -0.000426369
Spine  1.72062 0.840577 1.31063
Spine1  3.47856 1.63387 3.28318
HEad  20.9247 -4.61789 -5.07638
LeftShoulder1  -3.88251e-019 0 -3.92111e-022
LeftArm  -36.623 5.44644 -84.7246
LeftForeArm  36.4275 1.8141 2.1101
LeftHand  -0.702523 -3.98375 8.96352
RightShoulder  7.45443e-017 -2.42657e-020 1.96277e-018
RightArm  -17.4222 -9.60478 73.3819
RightForeArm  29.6735 8.87683 11.6419
RightHand  -1.40301 10.9464 -10.3278
LeftUpLeg  -2.41795 2.74936 2.65497
LeftLeg  5.48616 -8.01991 0.172511
LeftFoot  -4.84616 0.228204 -3.50761
LeftToes  3.91355e-005 3.11907e-005 -4.10385e-006
150
root  1.97897 67.0509 34.6572 0.664486 -19.8416 -0.989551
RightUpLeg  -9.99891 2.28362 -4.78196
RightLeg  11.8572 12.4627 0.659783
RightFoot  -4.48442 -0.477803 7.46044
RightToes  2.84633e-005 7.89722e-005 -0.000426369
Spine  1.44534 0.877475 1.42029
Spine1  2.93911 1.73476 3.53651
HEad  20.6282 -5.25496 -5.10388
LeftShoulder1  -3.88251e-019 0 -3.92111e-022
LeftArm  -36.8022 5.78068 -84.5608
LeftForeArm  34.5497 1.85341 2.3472
LeftHand  -0.729367 -4.10949 9.17965
RightShoulder  7.45443e-017 -2.42657e-020 1.96277e-018
RightArm  -20.9158 -9.69626 73.5748
RightForeArm  32.981 7.54608 11.0596
RightHand  -1.38415 11.1748 -10.0627
LeftUpLeg  -3.25663 2.46258 2.05637
LeftLeg  5.25211 -3.30546 0.55753
LeftFoot  -4.59857 0.219038 -3.24691
LeftToes  3.91355e-005 3.11907e-005 -4.10385e-006
151
root  2.582 67.0573 34.72 2.10308 -24.9313 -1.70963
RightUpLeg  -12.4415 1.28626 -4.50809
RightLeg  11.4582 15.9828 1.43347
RightFoot  -2.38003 -0.707792 8.8078
RightToes  2.84633e-005 7.89722e-005 -0.000426369
Spine  1.26471 0.949621 1.70932
Spine1  2.58833 1.89546 3.99697
HEad  20.1503 -6.09054 -5.05866
LeftShoulder1  -3.88251e-019 0 -3.92111e-022
LeftArm  -37.095 5.98977 -84.3822
LeftForeArm  34.0603 1.8447 2.88241
LeftHand  -0.732084 -4.17965 9.14931
RightShoulder  7.45443e-017 -2.42657e-020 1.96277e-018
RightArm  -24.4043 -9.67422 73.9435
RightForeArm  34.8735 5.65877 9.91195
RightHand  -1.29696 10.761 -9.68451
LeftUpLeg  -3.90076 2.23001 1.75449
LeftLeg  4.79702 2.15751 1.20537
LeftFoot  -3.83942 0.201025 -2.71443
LeftToes  3.91355e-005 3.11907e-005 -4.10385e-006
